<svg width="36" height="36" fill="none" xmlns="http://www.w3.org/2000/svg" class="" viewBox="0 0 36 36"><g clip-path="url(#jxIcon_svg__clip0_4457_16274)"><path d="M0 13.05c0-4.568 0-6.852.889-8.597A8.156 8.156 0 0 1 4.453.89c1.745-.89 4.03-.89 8.597-.89h9.9c4.568 0 6.852 0 8.597.89a8.156 8.156 0 0 1 3.564 3.564C36 6.198 36 8.482 36 13.05v9.9c0 4.568 0 6.852-.889 8.597a8.156 8.156 0 0 1-3.564 3.564C29.802 36 27.517 36 22.95 36h-9.9c-4.568 0-6.852 0-8.597-.89A8.156 8.156 0 0 1 .89 31.548C0 29.802 0 27.517 0 22.95v-9.9z" fill="#00F3E9"></path><mask id="jxIcon_svg__a" maskUnits="userSpaceOnUse" x="0" y="-1" width="36" height="37" style="mask-type: alpha;"><path d="M0 13.05c0-4.568 0-6.852.889-8.597A8.156 8.156 0 0 1 4.453.89c1.745-.89 4.03-.89 8.597-.89h9.9c4.568 0 6.852 0 8.597.89a8.156 8.156 0 0 1 3.564 3.564C36 6.198 36 8.482 36 13.05v9.9c0 4.568 0 6.852-.889 8.597a8.156 8.156 0 0 1-3.564 3.564C29.802 36 27.517 36 22.95 36h-9.9c-4.568 0-6.852 0-8.597-.89A8.156 8.156 0 0 1 .89 31.548C0 29.802 0 27.517 0 22.95v-9.9z" fill="#00F3E9"></path></mask><g mask="url(#jxIcon_svg__a)"><path d="M34.497 16.061c.461.14 1.86.5 1.86.5l3.88 1.039L40.6 40l-9.807-2.673-19.314-5.175h-.008c-5.736-1.538-9.138-7.434-7.601-13.17 1.536-5.735 7.431-9.137 13.165-7.6l.792-2.928a6.718 6.718 0 0 1 8.202-4.742 3.814 3.814 0 0 1 2.832 3.766c-.026 1.475.102 3.207.689 4.458 1.203 2.573 3.28 3.618 4.947 4.125z" fill="#000"></path><path d="M26.768 13.439a5.593 5.593 0 0 1-1.245-5.179l-3.878-1.04-4.17 15.539a3.375 3.375 0 0 1-4.094 2.265 3.341 3.341 0 0 1-1.41-.78 3.369 3.369 0 0 1-.925-3.52c.455-1.41 1.82-2.35 3.3-2.328.653.01 1.22.21 1.703.517l.814-3.04.246-.917a7.31 7.31 0 0 0-.944-.328c-3.935-1.053-7.995 1.29-9.048 5.225a7.382 7.382 0 0 0 1.48 6.66 7.347 7.347 0 0 0 3.952 2.442c3.913.93 7.839-1.538 8.88-5.424l2.072-7.733a9.55 9.55 0 0 0 4.93 3.18l.808-3.013.231-.864a5.544 5.544 0 0 1-2.704-1.66l.002-.002z" fill="#fff"></path></g></g><defs><clipPath id="jxIcon_svg__clip0_4457_16274"><path fill="#fff" d="M0 0h36v36H0z"></path></clipPath></defs></svg>